name C:\Users\u0101727\Documents\MyRepositories\upper-imu-dc\Results\main_mocap_tracking\Case_8\kinematics.mot
datacolumns 12
datarows 39
range 0.50000000 0.88000000
endheader 
time	clav_prot	clav_elev	scapula_abduction	scapula_elevation	scapula_upward_rot	scapula_winging	plane_elv	shoulder_elv	axial_rot	elbow_flexion	pro_sup	
          0.50000000	        -24.23658327	         -3.90772145	        -14.47273974	         -4.29001744	         14.71334157	          4.86725938	        -24.95402069	         12.37383997	         39.57274707	          0.01043604	         34.31912691	
          0.51000000	        -24.23701207	         -3.95759628	        -14.50098795	         -4.29141886	         14.61903856	          4.89892077	        -24.74967619	         12.28179445	         40.04080961	         -0.00757159	         34.32031618	
          0.52000000	        -24.22436982	         -3.96597209	        -14.51116568	         -4.28231785	         14.56178040	          4.91624057	        -24.51793150	         12.21544521	         40.50170901	         -0.01430530	         34.32061230	
          0.53000000	        -24.17474322	         -3.96846820	        -14.45042817	         -4.27020264	         14.51935055	          4.92827614	        -24.24275133	         12.17521332	         40.93418725	         -0.01250052	         34.32032725	
          0.54000000	        -24.12311120	         -3.96653534	        -14.38550448	         -4.25538016	         14.48005205	          4.93801750	        -23.90908649	         12.15529886	         41.30153325	         -0.00435402	         34.31962921	
          0.55000000	        -24.08304493	         -3.96225335	        -14.34210064	         -4.23903440	         14.43900671	          4.94727844	        -23.50629763	         12.15111837	         41.55912024	          0.00583285	         34.31882633	
          0.56000000	        -24.05488326	         -3.95856608	        -14.32075093	         -4.22312177	         14.39501062	          4.95736561	        -23.02726460	         12.16024147	         41.66339284	          0.01387777	         34.31823995	
          0.57000000	        -24.03390414	         -3.95840788	        -14.31245365	         -4.20963266	         14.34824516	          4.96924342	        -22.46748877	         12.18238217	         41.57875755	          0.01752172	         34.31803805	
          0.58000000	        -24.01557547	         -3.96409743	        -14.30858578	         -4.20014670	         14.29906854	          4.98360700	        -21.82461962	         12.21898105	         41.28026196	          0.01673926	         34.31820533	
          0.59000000	        -23.99724093	         -3.97721693	        -14.30404892	         -4.19575490	         14.24766500	          5.00093572	        -21.09830021	         12.27263529	         40.75245117	          0.01307485	         34.31859710	
          0.60000000	        -23.97786891	         -3.99877532	        -14.29676506	         -4.19718220	         14.19409930	          5.02154416	        -20.28992492	         12.34659023	         39.98602594	          0.00868879	         34.31901962	
          0.61000000	        -23.95750794	         -4.02937465	        -14.28662236	         -4.20491274	         14.13844301	          5.04561307	        -19.40199978	         12.44433002	         38.97410183	          0.00553742	         34.31930140	
          0.62000000	        -23.93691126	         -4.06928646	        -14.27474690	         -4.21925197	         14.08088044	          5.07319329	        -18.43735652	         12.56914980	         37.71021872	          0.00477402	         34.31934788	
          0.63000000	        -23.91733805	         -4.11836974	        -14.26312861	         -4.24027467	         14.02179897	          5.10415959	        -17.39872678	         12.72357414	         36.19006630	          0.00646001	         34.31916368	
          0.64000000	        -23.90012638	         -4.17601033	        -14.25384033	         -4.26777824	         13.96189159	          5.13816596	        -16.28895603	         12.90868508	         34.41716497	          0.00955512	         34.31885811	
          0.65000000	        -23.88622036	         -4.24098303	        -14.24818832	         -4.30117773	         13.90227419	          5.17456721	        -15.11175784	         13.12350810	         32.41008948	          0.01235914	         34.31859821	
          0.66000000	        -23.87566438	         -4.31142341	        -14.24580371	         -4.33947094	         13.84455743	          5.21238325	        -13.87252174	         13.36476652	         30.20760164	          0.01320606	         34.31854428	
          0.67000000	        -23.86747019	         -4.38497724	        -14.24442370	         -4.38132129	         13.79075942	          5.25035986	        -12.57864364	         13.62723137	         27.86846941	          0.01112802	         34.31878660	
          0.68000000	        -23.85984426	         -4.45911425	        -14.24033030	         -4.42525421	         13.74308460	          5.28712027	        -11.23914839	         13.90455008	         25.46528709	          0.00617080	         34.31931569	
          0.69000000	        -23.85081071	         -4.53151183	        -14.22951845	         -4.46990310	         13.70359110	          5.32137408	         -9.86373940	         14.19031529	         23.07437519	         -0.00071455	         34.32003333	
          0.70000000	        -23.83888353	         -4.60039968	        -14.20895325	         -4.51423172	         13.67386920	          5.35211691	         -8.46173640	         14.47902548	         20.76539762	         -0.00808092	         34.32079265	
          0.71000000	        -23.82342756	         -4.66477375	        -14.17724378	         -4.55767377	         13.65485982	          5.37875561	         -7.04129006	         14.76666105	         18.59384095	         -0.01446546	         34.32144538	
          0.72000000	        -23.80459042	         -4.72443221	        -14.13451277	         -4.60015933	         13.64686474	          5.40112674	         -5.60893866	         15.05078847	         16.59766212	         -0.01875358	         34.32187801	
          0.73000000	        -23.78289829	         -4.77984073	        -14.08164079	         -4.64202982	         13.64971181	          5.41941623	         -4.16933983	         15.33028494	         14.79762435	         -0.02035567	         34.32202971	
          0.74000000	        -23.75871001	         -4.83187352	        -14.01926154	         -4.68386482	         13.66298211	          5.43401644	         -2.72500045	         15.60487857	         13.19992318	         -0.01921567	         34.32189378	
          0.75000000	        -23.73186066	         -4.88148993	        -13.94713517	         -4.72625456	         13.68617334	          5.44537226	         -1.27591775	         15.87473101	         11.79960209	         -0.01570496	         34.32150748	
          0.76000000	        -23.70181541	         -4.92940777	        -13.86448596	         -4.76956282	         13.71871399	          5.45386192	          0.18079088	         16.14022701	         10.58371542	         -0.01046162	         34.32093662	
          0.77000000	        -23.66829981	         -4.97583933	        -13.77120626	         -4.81373963	         13.75987003	          5.45972875	          1.65098849	         16.40197935	          9.53388638	         -0.00423231	         34.32026021	
          0.78000000	        -23.63203463	         -5.02035232	        -13.66918807	         -4.85824549	         13.80868721	          5.46305133	          3.14302821	         16.66092601	          8.62836027	          0.00223786	         34.31955970	
          0.79000000	        -23.59511846	         -5.06190702	        -13.56290597	         -4.90213285	         13.86410374	          5.46373543	          4.66650946	         16.91837709	          7.84372199	          0.00824556	         34.31891481	
          0.80000000	        -23.56069437	         -5.09910645	        -13.45860705	         -4.94429426	         13.92524824	          5.46153067	          6.23036457	         17.17595962	          7.15634553	          0.01312420	         34.31840206	
          0.81000000	        -23.53190364	         -5.13063598	        -13.36221499	         -4.98381695	         13.99175900	          5.45609809	          7.84066442	         17.43555085	          6.54354158	          0.01626825	         34.31808971	
          0.82000000	        -23.51070441	         -5.15576456	        -13.27711856	         -5.02031778	         14.06387727	          5.44714683	          9.49877606	         17.69934993	          5.98434537	          0.01724730	         34.31802406	
          0.83000000	        -23.49728906	         -5.17471064	        -13.20321379	         -5.05412850	         14.14221818	          5.43460781	         11.20048610	         17.97010081	          5.46003552	          0.01596377	         34.31821327	
          0.84000000	        -23.49032595	         -5.18872466	        -13.13754016	         -5.08626880	         14.22736426	          5.41876521	         12.93637485	         18.25129152	          4.95464419	          0.01273794	         34.31861979	
          0.85000000	        -23.48769810	         -5.19986077	        -13.07581592	         -5.11822649	         14.31951491	          5.40027507	         14.69332702	         18.54713434	          4.45562148	          0.00824673	         34.31916790	
          0.86000000	        -23.48726627	         -5.21051902	        -13.01394913	         -5.15161717	         14.41834411	          5.38005158	         16.45676092	         18.86227163	          3.95438578	          0.00333389	         34.31976357	
          0.87000000	        -23.48739899	         -5.22289005	        -12.94903457	         -5.18781470	         14.52308947	          5.35905560	         18.21298663	         19.20130811	          3.44607894	         -0.00122751	         34.32031908	
          0.88000000	        -23.48724982	         -5.23844566	        -12.87980226	         -5.22764536	         14.63281152	          5.33805061	         19.95106696	         19.56833410	          2.92790292	         -0.00492969	         34.32077352	
